<svg viewBox="0 0 800 800" xmlns="http://www.w3.org/2000/svg"><path d="M611.0131895665179,464.9939986163215 L611.927478466984,88.96433598811234 M187.79550755832548,710.1316736354918 L186.87084341986844,333.03800318039134 M611.0131895665179,464.9939986163215 L634.9938092718301,480.5793414565156 M634.9938092718301,480.5793414565156 L655.5728280105777,497.728258432625 M655.5728280105777,497.728258432625 L672.4479590430033,516.1940742324158 M672.4479590430033,516.1940742324158 L685.3696287024643,535.7104940977974 M685.3696287024643,535.7104940977974 L694.1447820426686,555.9953371205031 M694.1447820426686,555.9953371205031 L698.6399653125261,576.7545066233138 M698.6399653125261,576.7545066233138 L698.7835597829815,597.6861659273882 M698.7835597829815,597.6861659273882 L694.5672206663867,618.4851448206427 M694.5672206663867,618.4851448206427 L686.0463614501259,638.8472931738411 M686.0463614501259,638.8472931738411 L673.3396574256194,658.4740217847072 M673.3396574256194,658.4740217847072 L656.6276705150103,677.0767392063026 M656.6276705150103,677.0767392063026 L636.150492810299,694.3811946054611 M636.150492810299,694.3811946054611 L612.204492441675,710.1316736354916 M612.204492441675,710.1316736354916 L585.1380364951151,724.0948745237029 M585.1380364951151,724.0948745237029 L555.3465635929524,736.0635788819079 M555.3465635929524,736.0635788819079 L523.2666776775002,745.8598254338069 M523.2666776775002,745.8598254338069 L489.3697412318431,753.3377579158291 M489.3697412318431,753.3377579158291 L454.15475322511,758.3859091071363 M454.15475322511,758.3859091071363 L418.14080324559654,760.928969749822 M418.14080324559654,760.928969749822 L381.85919675440346,760.928969749822 M381.85919675440346,760.928969749822 L345.8452467748901,758.3859091071363 M345.8452467748901,758.3859091071363 L310.6302587681569,753.3377579158291 M310.6302587681569,753.3377579158291 L276.7333223224999,745.8598254338069 M276.7333223224999,745.8598254338069 L244.6534364070477,736.0635788819079 M244.6534364070477,736.0635788819079 L214.86196350488495,724.0948745237029 M214.86196350488495,724.0948745237029 L187.79550755832548,710.1316736354918 M611.927478466984,88.96433598811234 L636.012369697994,104.48167597052918 M636.012369697994,104.48167597052918 L656.6810256666752,121.55582358513345 M656.6810256666752,121.55582358513345 L673.6298337119047,139.94119367813374 M673.6298337119047,139.94119367813374 L686.6081155281947,159.3726645638874 M686.6081155281947,159.3726645638874 L695.421950489884,179.56929411181423 M695.421950489884,179.56929411181423 L699.937273047957,200.23827207224053 M699.937273047957,200.23827207224053 L700.0821180945804,221.07907712755744 M700.0821180945804,221.07907712755744 L695.8480681683538,241.7878639102513 M695.8480681683538,241.7878639102513 L687.2907420055501,262.06179768624213 M687.2907420055501,262.06179768624213 L674.5292979902433,281.60357574646895 M674.5292979902433,281.60357574646895 L657.7450549208461,300.12584551491307 M657.7450549208461,300.12584551491307 L637.1791269501152,317.3555293457909 M637.1791269501152,317.3555293457909 L613.1291565801318,333.0380031803911 M613.1291565801318,333.0380031803911 L585.945019805635,346.94095695445924 M585.945019805635,346.94095695445924 L556.0238775945904,358.85805070413176 M556.0238775945904,358.85805070413176 L523.8042437875615,368.61207575290484 M523.8042437875615,368.61207575290484 L489.7595497475356,376.0577914247135 M489.7595497475356,376.0577914247135 L454.39099014824376,381.0842001964433 M454.39099014824376,381.0842001964433 L418.21994270582553,383.6163097787707 M418.21994270582553,383.6163097787707 L381.7800572941744,383.6163097787707 M381.7800572941744,383.6163097787707 L345.60900985175624,381.0842001964433 M345.60900985175624,381.0842001964433 L310.2404502524645,376.0577914247135 M310.2404502524645,376.0577914247135 L276.19575621243854,368.61207575290484 M276.19575621243854,368.61207575290484 L243.97612240540954,358.8580507041317 M243.97612240540954,358.8580507041317 L214.05498019436496,346.9409569544592 M214.05498019436496,346.9409569544592 L186.87084341986844,333.03800318039134 M187.79550755832548,710.1316736354918 L163.849507189701,694.3811946054611 M163.849507189701,694.3811946054611 L143.37232948498962,677.0767392063026 M143.37232948498962,677.0767392063026 L126.66034257438054,658.4740217847072 M126.66034257438054,658.4740217847072 L113.95363854987409,638.8472931738411 M113.95363854987409,638.8472931738411 L105.43277933361338,618.4851448206427 M105.43277933361338,618.4851448206427 L101.2164402170186,597.6861659273882 M101.2164402170186,597.6861659273882 L101.36003468747401,576.7545066233135 M101.36003468747401,576.7545066233135 L105.85521795733143,555.9953371205031 M105.85521795733143,555.9953371205031 L114.63037129753582,535.7104940977974 M114.63037129753582,535.7104940977974 L127.55204095699685,516.1940742324158 M127.55204095699685,516.1940742324158 L144.42717198942242,497.728258432625 M144.42717198942242,497.728258432625 L165.00619072816994,480.5793414565155 M165.00619072816994,480.5793414565155 L188.98681043348165,464.9939986163217 M188.98681043348165,464.9939986163217 L216.01865143004156,451.19593449108567 M216.01865143004156,451.19593449108567 L245.70828667992,439.38277044647964 M245.70828667992,439.38277044647964 L277.6250300756507,429.72342795697915 M277.6250300756507,429.72342795697915 L311.30700034177073,422.3558067443574 M311.30700034177073,422.3558067443574 L346.2676916580584,417.3849629784957 M346.2676916580584,417.3849629784957 L382.00279348384333,414.88171300114453 M382.00279348384333,414.88171300114453 L417.99720651615667,414.88171300114453 M417.99720651615667,414.88171300114453 L453.7323083419416,417.3849629784957 M453.7323083419416,417.3849629784957 L488.69299965822927,422.3558067443574 M488.69299965822927,422.3558067443574 L522.3749699243494,429.72342795697915 M522.3749699243494,429.72342795697915 L554.2917133200801,439.38277044647964 M554.2917133200801,439.38277044647964 L583.9813485699585,451.19593449108567 M583.9813485699585,451.19593449108567 L611.0131895665179,464.9939986163215 M186.87084341986844,333.03800318039134 L162.82087304988474,317.3555293457908 M162.82087304988474,317.3555293457908 L142.25494507915397,300.12584551491307 M142.25494507915397,300.12584551491307 L125.47070200975662,281.60357574646895 M125.47070200975662,281.60357574646895 L112.70925799444996,262.06179768624213 M112.70925799444996,262.06179768624213 L104.15193183164615,241.78786391025122 M104.15193183164615,241.78786391025122 L99.9178819054195,221.07907712755735 M99.9178819054195,221.07907712755735 L100.06272695204291,200.23827207224053 M100.06272695204291,200.23827207224053 L104.57804951011599,179.56929411181406 M104.57804951011599,179.56929411181406 L113.39188447180538,159.3726645638874 M113.39188447180538,159.3726645638874 L126.37016628809533,139.94119367813374 M126.37016628809533,139.94119367813374 L143.31897433332483,121.55582358513345 M143.31897433332483,121.55582358513345 L163.987630302006,104.48167597052907 M163.987630302006,104.48167597052907 L188.07252153301567,88.96433598811251 M188.07252153301567,88.96433598811251 L215.2217419099153,75.22651664481293 M215.2217419099153,75.22651664481293 L245.0401595639221,63.46496101705003 M245.0401595639221,63.46496101705003 L277.0952300252414,53.847838105589915 M277.0952300252414,53.847838105589915 L310.9230857101746,46.512432154759836 M310.9230857101746,46.512432154759836 L346.03513389918027,41.56332972477372 M346.03513389918027,41.56332972477372 L381.92490463930136,39.07103025017807 M381.92490463930136,39.07103025017807 L418.07509536069864,39.07103025017807 M418.07509536069864,39.07103025017807 L453.9648661008197,41.56332972477372 M453.9648661008197,41.56332972477372 L489.0769142898254,46.512432154759836 M489.0769142898254,46.512432154759836 L522.9047699747587,53.847838105589915 M522.9047699747587,53.847838105589915 L554.9598404360779,63.46496101705014 M554.9598404360779,63.46496101705014 L584.7782580900848,75.22651664481293 M584.7782580900848,75.22651664481293 L611.927478466984,88.96433598811234" stroke="black"  stroke-width="4"  fill="red"/></svg>