<svg viewBox="0 0 800 800" xmlns="http://www.w3.org/2000/svg"><path d="M610.0836160441984,464.2751722394761 L611.9039362009912,88.36717222433742 M187.54143412804783,709.8105843375331 L185.67954230871038,331.76754698090946 M610.0836160441984,464.2751722394761 L627.7099456303538,475.32303732126843 M627.7099456303538,475.32303732126843 L643.629750038556,487.2237469109 M643.629750038556,487.2237469109 L657.7207367022252,499.8893498468353 M657.7207367022252,499.8893498468353 L669.8737146813289,513.2259445290783 M669.8737146813289,513.2259445290783 L679.9935857567436,527.1342597964533 M679.9935857567436,527.1342597964533 L688.0000650452039,541.5104189399037 M688.0000650452039,541.5104189399037 L693.8284132772146,556.2465986918979 M693.8284132772146,556.2465986918979 L697.4300260398165,571.2318445832848 M697.4300260398165,571.2318445832848 L698.773007905213,586.3528474352236 M698.773007905213,586.3528474352236 L697.8424188539104,601.4948158668689 M697.8424188539104,601.4948158668689 L694.6406699399638,616.5423216258755 M694.6406699399638,616.5423216258755 L689.1875075651628,631.3801641050832 M689.1875075651628,631.3801641050832 L681.5201372359429,645.8943004078967 M681.5201372359429,645.8943004078967 L671.6929947638798,659.9727154236218 M671.6929947638798,659.9727154236218 L659.7774711776899,673.5063649988566 M659.7774711776899,673.5063649988566 L645.8614486608831,686.3899909101212 M645.8614486608831,686.3899909101212 L630.0488018055389,698.5230678035301 M630.0488018055389,698.5230678035301 L612.4585658719525,709.8105843375329 M612.4585658719525,709.8105843375329 L593.2241467165052,720.1638833310888 M593.2241467165052,720.1638833310888 L572.4922896771304,729.5014040607039 M572.4922896771304,729.5014040607039 L550.4219830062327,737.74940713482 M550.4219830062327,737.74940713482 L527.1831514492876,744.8425756839474 M527.1831514492876,744.8425756839474 L502.9554062786549,750.7246531051406 M502.9554062786549,750.7246531051406 L477.9264607757938,755.3488943214545 M477.9264607757938,755.3488943214545 L452.29072352065924,758.6784982989566 M452.29072352065924,758.6784982989566 L426.24762119955864,760.6869280470756 M426.24762119955864,760.6869280470756 L400,761.3581956623494 M400,761.3581956623494 L373.75237880044136,760.6869280470756 M373.75237880044136,760.6869280470756 L347.7092764793408,758.6784982989566 M347.7092764793408,758.6784982989566 L322.0735392242061,755.3488943214545 M322.0735392242061,755.3488943214545 L297.04459372134517,750.7246531051406 M297.04459372134517,750.7246531051406 L272.81684855071234,744.8425756839474 M272.81684855071234,744.8425756839474 L249.57801699376722,737.74940713482 M249.57801699376722,737.74940713482 L227.50771032286949,729.5014040607039 M227.50771032286949,729.5014040607039 L206.77585328349477,720.1638833310888 M206.77585328349477,720.1638833310888 L187.54143412804783,709.8105843375331 M611.9039362009912,88.36717222433742 L629.6840056791345,99.31794681033904 M629.6840056791345,99.31794681033904 L645.7429885462775,111.1141789580322 M645.7429885462775,111.1141789580322 L659.9575136021808,123.66871242180076 M659.9575136021808,123.66871242180076 L672.21741649622,136.88849058393936 M672.21741649622,136.88849058393936 L682.4267400596809,150.675131424377 M682.4267400596809,150.675131424377 L690.5044620756964,164.92568409400826 M690.5044620756964,164.92568409400826 L696.3852350239572,179.5332814792529 M696.3852350239572,179.5332814792529 L700.0199817582031,194.38794788296588 M700.0199817582031,194.38794788296588 L701.3764760930758,209.37736831543472 M701.3764760930758,209.37736831543472 L700.4395929615011,224.38775311403526 M700.4395929615011,224.38775311403526 L697.2117091828113,239.30467578358468 M697.2117091828113,239.30467578358468 L691.712689281278,254.0139300214496 M691.712689281278,254.0139300214496 L683.9800119855718,268.4024518906647 M683.9800119855718,268.4024518906647 L674.068541013583,282.3591826875464 M674.068541013583,282.3591826875464 L662.050249047576,295.7760044280682 M662.050249047576,295.7760044280682 L648.0137508999508,308.54854838485966 M648.0137508999508,308.54854838485966 L632.0638014968272,320.5771345747115 M632.0638014968272,320.5771345747115 L614.3204576912899,331.7675469809093 M614.3204576912899,331.7675469809093 L594.9182818431248,342.0318673467734 M594.9182818431248,342.0318673467734 L574.0053019450804,351.28921200736 M574.0053019450804,351.28921200736 L551.741905420751,359.4664514646369 M551.741905420751,359.4664514646369 L528.2995209185347,366.49880732579993 M528.2995209185347,366.49880732579993 L503.85935676823715,372.330485437435 M503.85935676823715,372.330485437435 L478.6108016682714,376.915124059948 M478.6108016682714,376.915124059948 L452.7500044994157,380.21622335855494 M452.7500044994157,380.21622335855494 L426.4781810739459,382.20746321715853 M426.4781810739459,382.20746321715853 L400,382.8729862515923 M400,382.8729862515923 L373.52181892605404,382.20746321715853 M373.52181892605404,382.20746321715853 L347.2499955005842,380.21622335855494 M347.2499955005842,380.21622335855494 L321.38919833172855,376.9151240599479 M321.38919833172855,376.9151240599479 L296.1406432317629,372.330485437435 M296.1406432317629,372.330485437435 L271.70047908146535,366.49880732579993 M271.70047908146535,366.49880732579993 L248.25809457924896,359.4664514646369 M248.25809457924896,359.4664514646369 L225.99469805491952,351.28921200736 M225.99469805491952,351.28921200736 L205.08171815687524,342.0318673467734 M205.08171815687524,342.0318673467734 L185.67954230871038,331.76754698090946 M187.54143412804783,709.8105843375331 L169.95119819446094,698.5230678035301 M169.95119819446094,698.5230678035301 L154.13855133911696,686.3899909101212 M154.13855133911696,686.3899909101212 L140.2225288223101,673.5063649988566 M140.2225288223101,673.5063649988566 L128.30700523612018,659.9727154236217 M128.30700523612018,659.9727154236217 L118.4798627640572,645.8943004078967 M118.4798627640572,645.8943004078967 L110.81249243483722,631.3801641050832 M110.81249243483722,631.3801641050832 L105.35933006003626,616.5423216258754 M105.35933006003626,616.5423216258754 L102.15758114608957,601.4948158668689 M102.15758114608957,601.4948158668689 L101.22699209478708,586.3528474352236 M101.22699209478708,586.3528474352236 L102.56997396018352,571.2318445832847 M102.56997396018352,571.2318445832847 L106.17158672278526,556.2465986918978 M106.17158672278526,556.2465986918978 L111.99993495479612,541.5104189399037 M111.99993495479612,541.5104189399037 L120.00641424325613,527.1342597964533 M120.00641424325613,527.1342597964533 L130.12628531867108,513.2259445290783 M130.12628531867108,513.2259445290783 L142.27926329777495,499.8893498468353 M142.27926329777495,499.8893498468353 L156.37024996144385,487.2237469109 M156.37024996144385,487.2237469109 L172.2900543696463,475.3230373212684 M172.2900543696463,475.3230373212684 L189.9163839558011,464.27517223947626 M189.9163839558011,464.27517223947626 L209.11473512056634,454.16152732941316 M209.11473512056634,454.16152732941316 L229.7394571737641,445.056381364382 M229.7394571737641,445.056381364382 L251.63481644741606,437.02641309264715 M251.63481644741606,437.02641309264715 L274.6362025237189,430.1303134923824 M274.6362025237189,430.1303134923824 L298.57121909100516,424.4183510593261 M298.57121909100516,424.4183510593261 L323.26104672234976,419.93210129839326 M323.26104672234976,419.93210129839326 L348.52158137067,416.70417175319346 M348.52158137067,416.70417175319346 L374.1647972764177,414.7580091832801 M374.1647972764177,414.7580091832801 L400,414.1077099094864 M400,414.1077099094864 L425.8352027235823,414.7580091832801 M425.8352027235823,414.7580091832801 L451.47841862933,416.7041717531936 M451.47841862933,416.7041717531936 L476.7389532776501,419.93210129839326 M476.7389532776501,419.93210129839326 L501.4287809089948,424.4183510593261 M501.4287809089948,424.4183510593261 L525.363797476281,430.1303134923825 M525.363797476281,430.1303134923825 L548.3651835525839,437.0264130926472 M548.3651835525839,437.0264130926472 L570.2605428262359,445.0563813643821 M570.2605428262359,445.0563813643821 L590.8852648794336,454.16152732941316 M590.8852648794336,454.16152732941316 L610.0836160441984,464.2751722394761 M185.67954230871038,331.76754698090946 L167.93619850317276,320.5771345747114 M167.93619850317276,320.5771345747114 L151.9862491000492,308.54854838485966 M151.9862491000492,308.54854838485966 L137.94975095242387,295.7760044280682 M137.94975095242387,295.7760044280682 L125.93145898641711,282.3591826875463 M125.93145898641711,282.3591826875463 L116.01998801442824,268.4024518906647 M116.01998801442824,268.4024518906647 L108.28731071872193,254.01393002144943 M108.28731071872193,254.01393002144943 L102.78829081718857,239.30467578358468 M102.78829081718857,239.30467578358468 L99.56040703849868,224.38775311403526 M99.56040703849868,224.38775311403526 L98.62352390692422,209.37736831543472 M98.62352390692422,209.37736831543472 L99.98001824179693,194.38794788296588 M99.98001824179693,194.38794788296588 L103.6147649760428,179.53328147925282 M103.6147649760428,179.53328147925282 L109.4955379243035,164.92568409400815 M109.4955379243035,164.92568409400815 L117.57325994031896,150.675131424377 M117.57325994031896,150.675131424377 L127.78258350377996,136.88849058393936 M127.78258350377996,136.88849058393936 L140.042486397819,123.66871242180059 M140.042486397819,123.66871242180059 L154.2570114537225,111.1141789580322 M154.2570114537225,111.1141789580322 L170.3159943208654,99.31794681033904 M170.3159943208654,99.31794681033904 L188.09606379900842,88.3671722243376 M188.09606379900842,88.3671722243376 L207.46154054269988,78.34249235582615 M207.46154054269988,78.34249235582615 L228.26551034034543,69.31750933030162 M228.26551034034543,69.31750933030162 L250.3508972975231,61.358292395461376 M250.3508972975231,61.358292395461376 L273.55168009871437,54.52299441681134 M273.55168009871437,54.52299441681134 L297.6939916575453,48.86142176558286 M297.6939916575453,48.86142176558286 L322.59749281019003,44.414766886917164 M322.59749281019003,44.414766886917164 L348.0765195912038,41.21533634838789 M348.0765195912038,41.21533634838789 L373.9414566974801,39.28636019831174 M373.9414566974801,39.28636019831174 L399.99999999999994,38.641804337650626 M399.99999999999994,38.641804337650626 L426.0585433025198,39.28636019831174 M426.0585433025198,39.28636019831174 L451.9234804087961,41.21533634838789 M451.9234804087961,41.21533634838789 L477.40250718980985,44.414766886917164 M477.40250718980985,44.414766886917164 L502.3060083424546,48.86142176558286 M502.3060083424546,48.86142176558286 L526.4483199012855,54.52299441681157 M526.4483199012855,54.52299441681157 L549.6491027024767,61.358292395461376 M549.6491027024767,61.358292395461376 L571.7344896596546,69.31750933030162 M571.7344896596546,69.31750933030162 L592.5384594573,78.34249235582621 M592.5384594573,78.34249235582621 L611.9039362009912,88.36717222433742" stroke="black"  stroke-width="4"  fill="red"/></svg>