<svg viewBox="0 0 800 800" xmlns="http://www.w3.org/2000/svg"><path d="M610.4225400142104,465.07854837166013 L612.2487638138304,87.95140755884825 M187.19479759798938,710.2220506167207 L185.32679857849425,330.9389925062443 M610.4225400142104,465.07854837166013 L628.0774929909178,476.10858735512056 M628.0774929909178,476.10858735512056 L644.0232093131336,487.9901150062506 M644.0232093131336,487.9901150062506 L658.1371956084485,500.6353261985932 M658.1371956084485,500.6353261985932 L670.3100797332571,513.9504745507099 M670.3100797332571,513.9504745507099 L680.4466035863295,527.8364522156712 M680.4466035863295,527.8364522156712 L688.4663450548059,542.189552525519 M688.4663450548059,542.189552525519 L694.304451680933,556.9021277985876 M694.304451680933,556.9021277985876 L697.9122311012071,571.8634032850575 M697.9122311012071,571.8634032850575 L699.2577263755447,586.9602523353271 M699.2577263755447,586.9602523353271 L698.3259631036196,602.0780674586063 M698.3259631036196,602.0780674586063 L695.1193460380179,617.101604278005 M695.1193460380179,617.101604278005 L689.657643643746,631.9158446721963 M689.657643643746,631.9158446721963 L681.9781123635548,646.4069253928908 M681.9781123635548,646.4069253928908 L672.1352677389391,660.463006818562 M672.1352677389391,660.463006818562 L660.2006091457515,673.9752147172344 M660.2006091457515,673.9752147172344 L646.2621552140542,686.8384540403708 M646.2621552140542,686.8384540403708 L630.4239444715706,698.9523544977153 M630.4239444715706,698.9523544977153 L612.805202402011,710.2220506167207 M612.805202402011,710.2220506167207 L593.5395501902717,720.5590207280052 M593.5395501902717,720.5590207280052 L572.7739719767442,729.8818282630561 M572.7739719767442,729.8818282630561 L550.6677164964268,738.1168456598257 M550.6677164964268,738.1168456598257 L527.3909884639354,745.1988547762194 M527.3909884639354,745.1988547762194 L503.12369645273617,751.0716837919542 M503.12369645273617,751.0716837919542 L478.0538656240995,755.688657905001 M478.0538656240995,755.688657905001 L452.37622850919513,759.0130312960064 M452.37622850919513,759.0130312960064 L426.29054482903985,761.0183067296136 M426.29054482903985,761.0183067296136 L400.00000000000006,761.6885202272363 M400.00000000000006,761.6885202272363 L373.70945517096027,761.0183067296136 M373.70945517096027,761.0183067296136 L347.6237714908049,759.0130312960064 M347.6237714908049,759.0130312960064 L321.94613437590067,755.688657905001 M321.94613437590067,755.688657905001 L296.8763035472639,751.0716837919542 M296.8763035472639,751.0716837919542 L272.6090115360647,745.1988547762194 M272.6090115360647,745.1988547762194 L249.33228350357325,738.1168456598257 M249.33228350357325,738.1168456598257 L227.2260280232559,729.8818282630561 M227.2260280232559,729.8818282630561 L206.46044980972835,720.5590207280052 M206.46044980972835,720.5590207280052 L187.19479759798938,710.2220506167207 M612.2487638138304,87.95140755884825 L630.057958568789,98.88341666129298 M630.057958568789,98.88341666129298 L646.1433087440162,110.65945495398825 M646.1433087440162,110.65945495398825 L660.3812387752552,123.192519702364 M660.3812387752552,123.192519702364 L672.6613998643767,136.38971748974217 M672.6613998643767,136.38971748974217 L682.8876720628199,150.1528380499634 M682.8876720628199,150.1528380499634 L690.9788933985998,164.37910940697594 M690.9788933985998,164.37910940697594 L696.8696010375775,178.961849201301 M696.8696010375775,178.961849201301 L700.5106281824184,193.79127089030297 M700.5106281824184,193.79127089030297 L701.8696858856832,208.75525164956727 M701.8696858856832,208.75525164956727 L700.9316139176855,223.74019546920815 M700.9316139176855,223.74019546920815 L697.6987825045226,238.6318695468421 M697.6987825045226,238.6318695468421 L692.1910784424579,253.3162598640588 M692.1910784424579,253.3162598640588 L684.446032120211,267.68049183243784 M684.446032120211,267.68049183243784 L674.51858822816,281.61369176545156 M674.51858822816,281.61369176545156 L662.4808295589363,295.00792087592293 M662.4808295589363,295.00792087592293 L648.4215096506357,307.75898256488097 M648.4215096506357,307.75898256488097 L632.4455501530826,319.7673604636239 M632.4455501530826,319.7673604636239 L614.6732014215062,330.9389925062442 M614.6732014215062,330.9389925062442 L595.2392448948043,341.1861034889554 M595.2392448948043,341.1861034889554 L574.291951562956,350.42794083930363 M574.291951562956,350.42794083930363 L551.9919739395193,358.5914931608977 M551.9919739395193,358.5914931608977 L528.5110256223293,365.6120863439574 M528.5110256223293,365.6120863439574 L504.03061755555865,371.43401580264174 M504.03061755555865,371.43401580264174 L478.7404559121651,376.0109940481142 M478.7404559121651,376.0109940481142 L452.8370193523698,379.3065795901884 M452.8370193523698,379.3065795901884 L426.5218627276984,381.2944943249913 M426.5218627276984,381.2944943249913 L400,381.958906153016 M400,381.958906153016 L373.47813727230164,381.2944943249913 M373.47813727230164,381.2944943249913 L347.1629806476302,379.3065795901884 M347.1629806476302,379.3065795901884 L321.259544087835,376.0109940481142 M321.259544087835,376.0109940481142 L295.9693824444414,371.43401580264174 M295.9693824444414,371.43401580264174 L271.48897437767084,365.6120863439573 M271.48897437767084,365.6120863439573 L248.00802606048077,358.5914931608977 M248.00802606048077,358.5914931608977 L225.708048437044,350.42794083930363 M225.708048437044,350.42794083930363 L204.7607551051958,341.18610348895527 M204.7607551051958,341.18610348895527 L185.32679857849425,330.9389925062443 M187.19479759798938,710.2220506167207 L169.5760555284295,698.9523544977153 M169.5760555284295,698.9523544977153 L153.73784478594587,686.8384540403708 M153.73784478594587,686.8384540403708 L139.7993908542486,673.9752147172344 M139.7993908542486,673.9752147172344 L127.86473226106091,660.4630068185618 M127.86473226106091,660.4630068185618 L118.02188763644529,646.4069253928906 M118.02188763644529,646.4069253928906 L110.34235635625402,631.9158446721963 M110.34235635625402,631.9158446721963 L104.88065396198226,617.101604278005 M104.88065396198226,617.101604278005 L101.67403689638036,602.0780674586063 M101.67403689638036,602.0780674586063 L100.74227362445538,586.9602523353271 M100.74227362445538,586.9602523353271 L102.08776889879306,571.8634032850573 M102.08776889879306,571.8634032850573 L105.69554831906726,556.9021277985876 M105.69554831906726,556.9021277985876 L111.5336549451942,542.189552525519 M111.5336549451942,542.189552525519 L119.55339641367055,527.8364522156712 M119.55339641367055,527.8364522156712 L129.68992026674283,513.9504745507099 M129.68992026674283,513.9504745507099 L141.86280439155155,500.6353261985931 M141.86280439155155,500.6353261985931 L155.97679068686645,487.9901150062506 M155.97679068686645,487.9901150062506 L171.92250700908227,476.10858735512056 M171.92250700908227,476.10858735512056 L189.57745998578926,465.0785483716603 M189.57745998578926,465.0785483716603 L208.8069271192101,454.9812380358042 M208.8069271192101,454.9812380358042 L229.46502246649362,445.8908107925392 M229.46502246649362,445.8908107925392 L251.39576244177385,437.87383339156673 M251.39576244177385,437.87383339156673 L274.43427391289435,430.98889792414315 M274.43427391289435,430.98889792414315 L298.40788669564245,425.28618795844255 M298.40788669564245,425.28618795844255 L323.1374983657393,420.80720859880927 M323.1374983657393,420.80720859880927 L348.43871439021973,417.5845120719638 M348.43871439021973,417.5845120719638 L374.1232130021978,415.6415053066325 M374.1232130021978,415.6415053066325 L400.00000000000006,414.992260652398 M400.00000000000006,414.992260652398 L425.8767869978022,415.6415053066325 M425.8767869978022,415.6415053066325 L451.5612856097803,417.5845120719638 M451.5612856097803,417.5845120719638 L476.86250163426075,420.80720859880927 M476.86250163426075,420.80720859880927 L501.59211330435755,425.28618795844255 M501.59211330435755,425.28618795844255 L525.5657260871056,430.98889792414315 M525.5657260871056,430.98889792414315 L548.6042375582261,437.8738333915668 M548.6042375582261,437.8738333915668 L570.5349775335064,445.8908107925392 M570.5349775335064,445.8908107925392 L591.19307288079,454.9812380358042 M591.19307288079,454.9812380358042 L610.4225400142104,465.07854837166013 M185.32679857849425,330.9389925062443 L167.5544498469173,319.7673604636239 M167.5544498469173,319.7673604636239 L151.5784903493643,307.75898256488097 M151.5784903493643,307.75898256488097 L137.51917044106375,295.0079208759229 M137.51917044106375,295.0079208759229 L125.48141177184016,281.61369176545145 M125.48141177184016,281.61369176545145 L115.55396787978907,267.68049183243784 M115.55396787978907,267.68049183243784 L107.80892155754213,253.31625986405862 M107.80892155754213,253.31625986405862 L102.30121749547754,238.631869546842 M102.30121749547754,238.631869546842 L99.06838608231453,223.74019546920815 M99.06838608231453,223.74019546920815 L98.13031411431677,208.7552516495671 M98.13031411431677,208.7552516495671 L99.48937181758163,193.79127089030288 M99.48937181758163,193.79127089030288 L103.13039896242259,178.96184920130082 M103.13039896242259,178.96184920130082 L109.02110660140028,164.37910940697594 M109.02110660140028,164.37910940697594 L117.11232793718005,150.1528380499634 M117.11232793718005,150.1528380499634 L127.33860013562332,136.38971748974217 M127.33860013562332,136.38971748974217 L139.61876122474484,123.19251970236382 M139.61876122474484,123.19251970236382 L153.85669125598392,110.65945495398825 M153.85669125598392,110.65945495398825 L169.94204143121104,98.88341666129298 M169.94204143121104,98.88341666129298 L187.75123618616942,87.95140755884825 M187.75123618616942,87.95140755884825 L207.14837343197212,77.94392220206646 M207.14837343197212,77.94392220206646 L227.986299603088,68.934432075431 M227.986299603088,68.934432075431 L250.10768455851206,60.98888876174561 M250.10768455851206,60.98888876174561 L273.3462397433626,54.16534125244374 M273.3462397433626,54.16534125244374 L297.5278195037466,48.51350672001843 M297.5278195037466,48.51350672001843 L322.4717968460442,44.074503676695656 M322.4717968460442,44.074503676695656 L347.9922123740125,40.88058060289063 M347.9922123740125,40.88058060289063 L373.8991497500472,38.95492572418152 M373.8991497500472,38.95492572418152 L400,38.31147977276373 M400,38.31147977276373 L426.1008502499529,38.95492572418152 M426.1008502499529,38.95492572418152 L452.0077876259875,40.88058060289063 M452.0077876259875,40.88058060289063 L477.5282031539558,44.074503676695656 M477.5282031539558,44.074503676695656 L502.4721804962534,48.51350672001843 M502.4721804962534,48.51350672001843 L526.6537602566374,54.16534125244391 M526.6537602566374,54.16534125244391 L549.892315441488,60.98888876174561 M549.892315441488,60.98888876174561 L572.0137003969121,68.934432075431 M572.0137003969121,68.934432075431 L592.8516265680279,77.94392220206646 M592.8516265680279,77.94392220206646 L612.2487638138304,87.95140755884825" stroke="black"  stroke-width="4"  fill="red"/></svg>