<svg viewBox="0 0 800 800" xmlns="http://www.w3.org/2000/svg"><path d="M631.2285222453625,367.78624610861834 L632.2281245695403,161.36183824280732 M166.1517997763023,636.879563814573 L165.12936930447225,429.2827974277028 M631.2285222453625,367.78624610861834 L650.6292154585417,379.8938177466261 M650.6292154585417,379.8938177466261 L668.1516828398449,392.93606803553854 M668.1516828398449,392.93606803553854 L683.6613179309431,406.81661561310085 M683.6613179309431,406.81661561310085 L697.0379323288557,421.4325573033176 M697.0379323288557,421.4325573033176 L708.1768467102563,436.67510449080834 M708.1768467102563,436.67510449080834 L716.9896842232788,452.43042021867376 M716.9896842232788,452.43042021867376 L723.4051767732808,468.58034121393894 M723.4051767732808,468.58034121393894 L727.3698139331404,485.0032713129571 M727.3698139331404,485.0032713129571 L728.848475260032,501.5750323306361 M728.848475260032,501.5750323306361 L727.8247019544492,518.1698201982508 M727.8247019544492,518.1698201982508 L724.3011328029861,534.6611313609269 M724.3011328029861,534.6611313609269 L718.2994873251878,550.9227102475445 M718.2994873251878,550.9227102475445 L709.8607024392181,566.8295686248915 M709.8607024392181,566.8295686248915 L699.0446810582782,582.2589392507533 M699.0446810582782,582.2589392507533 L685.9299897070289,597.091309679722 M685.9299897070289,597.091309679722 L670.6133480898322,611.2113156071684 M670.6133480898322,611.2113156071684 L653.2090804305788,624.5087788777929 M653.2090804305788,624.5087788777929 L633.8482002236981,636.8795638145729 M633.8482002236981,636.8795638145729 L612.677540776089,648.2264982360616 M612.677540776089,648.2264982360616 L589.8586203583443,658.4601872447615 M589.8586203583443,658.4601872447615 L565.5664352319857,667.4998079252364 M565.5664352319857,667.4998079252364 L539.988021610794,675.2737684833559 M539.988021610794,675.2737684833559 L513.3210796832323,681.7204074359282 M513.3210796832323,681.7204074359282 L485.77222932423973,686.7884883965589 M485.77222932423973,686.7884883965589 L457.5554614505438,690.437674292276 M457.5554614505438,690.437674292276 L428.890291605611,692.6388782299612 M428.890291605611,692.6388782299612 L400,693.3745760116362 M400,693.3745760116362 L371.10970839438903,692.6388782299612 M371.10970839438903,692.6388782299612 L342.4445385494563,690.437674292276 M342.4445385494563,690.437674292276 L314.22777067576027,686.7884883965589 M314.22777067576027,686.7884883965589 L286.67892031676774,681.7204074359282 M286.67892031676774,681.7204074359282 L260.011978389206,675.2737684833559 M260.011978389206,675.2737684833559 L234.43356476801432,667.4998079252363 M234.43356476801432,667.4998079252363 L210.1413796416558,658.4601872447615 M210.1413796416558,658.4601872447615 L187.32245922391107,648.2264982360616 M187.32245922391107,648.2264982360616 L166.1517997763023,636.879563814573 M632.2281245695403,161.36183824280732 L651.7132417916675,173.41609699290024 M651.7132417916675,173.41609699290024 L669.3121369793967,186.40097819065267 M669.3121369793967,186.40097819065267 L684.8896113587004,200.2205369675643 M684.8896113587004,200.2205369675643 L698.3249419927431,214.77233413295755 M698.3249419927431,214.77233413295755 L709.5129778790563,229.9480693044118 M709.5129778790563,229.9480693044118 L718.3649372703876,245.63441392026206 M718.3649372703876,245.63441392026206 L724.8092180607312,261.7137297370869 M724.8092180607312,261.7137297370869 L728.7920502291427,278.06495804017936 M728.7920502291427,278.06495804017936 L730.2781317029317,294.5644665586821 M730.2781317029317,294.5644665586821 L729.250902067266,311.08700127202917 M729.250902067266,311.08700127202917 L725.7129813100973,327.50660869454526 M725.7129813100973,327.50660869454526 L719.6861538170415,343.6975792316926 M719.6861538170415,343.6975792316926 L711.2115065430498,359.5354622005626 M711.2115065430498,359.5354622005626 L700.349177380542,374.89801552519316 M700.349177380542,374.89801552519316 L687.1780522613496,389.6662353225352 M687.1780522613496,389.6662353225352 L671.7952532027937,403.72524571263125 M671.7952532027937,403.72524571263125 L654.3155878517157,416.9653327351974 M654.3155878517157,416.9653327351974 L634.8706306955282,429.2827974277025 M634.8706306955282,429.2827974277025 L613.6078501181503,440.58087335336893 M613.6078501181503,440.58087335336893 L590.6894687412391,450.7705373885653 M590.6894687412391,450.7705373885653 L566.291251160487,459.77130151116086 M566.291251160487,459.77130151116086 L540.6010594355928,467.5118696051402 M540.6010594355928,467.5118696051402 L513.8174707552403,473.9308341187476 M513.8174707552403,473.9308341187476 L486.14802502444235,478.97716915639813 M486.14802502444235,478.97716915639813 L457.80766881992207,482.61070303374595 M457.80766881992207,482.61070303374595 L429.01690015667276,484.80246794354986 M429.01690015667276,484.80246794354986 L400,485.53501135603074 M400,485.53501135603074 L370.98309984332724,484.80246794354986 M370.98309984332724,484.80246794354986 L342.192331180078,482.61070303374595 M342.192331180078,482.61070303374595 L313.85197497555765,478.977169156398 M313.85197497555765,478.977169156398 L286.18252924475973,473.9308341187476 M286.18252924475973,473.9308341187476 L259.3989405644073,467.5118696051401 M259.3989405644073,467.5118696051401 L233.7087488395129,459.77130151116086 M233.7087488395129,459.77130151116086 L209.3105312587609,450.7705373885652 M209.3105312587609,450.7705373885652 L186.39214988184983,440.58087335336893 M186.39214988184983,440.58087335336893 L165.12936930447225,429.2827974277028 M166.1517997763023,636.879563814573 L146.79091956942116,624.5087788777928 M146.79091956942116,624.5087788777928 L129.3866519101678,611.2113156071684 M129.3866519101678,611.2113156071684 L114.07001029297112,597.0913096797219 M114.07001029297112,597.0913096797219 L100.95531894172177,582.2589392507533 M100.95531894172177,582.2589392507533 L90.13929756078187,566.8295686248914 M90.13929756078187,566.8295686248914 L81.70051267481222,550.9227102475445 M81.70051267481222,550.9227102475445 L75.6988671970139,534.6611313609269 M75.6988671970139,534.6611313609269 L72.17529804555079,518.1698201982508 M72.17529804555079,518.1698201982508 L71.15152473996801,501.575032330636 M71.15152473996801,501.575032330636 L72.6301860668595,485.0032713129571 M72.6301860668595,485.0032713129571 L76.59482322671926,468.58034121393894 M76.59482322671926,468.58034121393894 L83.0103157767212,452.4304202186736 M83.0103157767212,452.4304202186736 L91.8231532897438,436.6751044908082 M91.8231532897438,436.6751044908082 L102.96206767114427,421.43255730331754 M102.96206767114427,421.43255730331754 L116.33868206905674,406.81661561310074 M116.33868206905674,406.81661561310074 L131.84831716015498,392.9360680355384 M131.84831716015498,392.9360680355384 L149.37078454145828,379.89381774662604 M149.37078454145828,379.89381774662604 L168.77147775463706,367.78624610861857 M168.77147775463706,367.78624610861857 L189.90235262484316,356.70252788839923 M189.90235262484316,356.70252788839923 L212.60309832048586,346.7240600917787 M212.60309832048586,346.7240600917787 L236.7023085285968,337.92391080625157 M236.7023085285968,337.92391080625157 L262.01880897636823,330.3663944924125 M262.01880897636823,330.3663944924125 L288.3628579034754,324.10659578840136 M288.3628579034754,324.10659578840136 L315.537645762167,319.19007324653865 M315.537645762167,319.19007324653865 L343.3405480080183,315.65255815328294 M343.3405480080183,315.65255815328294 L371.5646248445883,313.5197433446331 M371.5646248445883,313.5197433446331 L400,312.8070754587121 M400,312.8070754587121 L428.4353751554117,313.5197433446331 M428.4353751554117,313.5197433446331 L456.65945199198165,315.65255815328294 M456.65945199198165,315.65255815328294 L484.46235423783304,319.19007324653865 M484.46235423783304,319.19007324653865 L511.63714209652466,324.10659578840136 M511.63714209652466,324.10659578840136 L537.9811910236317,330.3663944924125 M537.9811910236317,330.3663944924125 L563.2976914714031,337.92391080625157 M563.2976914714031,337.92391080625157 L587.3969016795143,346.7240600917787 M587.3969016795143,346.7240600917787 L610.0976473751568,356.70252788839935 M610.0976473751568,356.70252788839935 L631.2285222453625,367.78624610861834 M165.12936930447225,429.2827974277028 L145.68441214828422,416.96533273519736 M145.68441214828422,416.96533273519736 L128.2047467972062,403.72524571263125 M128.2047467972062,403.72524571263125 L112.8219477386503,389.66623532253516 M112.8219477386503,389.66623532253516 L99.65082261945804,374.89801552519316 M99.65082261945804,374.89801552519316 L88.78849345695016,359.5354622005625 M88.78849345695016,359.5354622005625 L80.31384618295851,343.6975792316926 M80.31384618295851,343.6975792316926 L74.28701868990254,327.50660869454515 M74.28701868990254,327.50660869454515 L70.749097932734,311.0870012720291 M70.749097932734,311.0870012720291 L69.7218682970684,294.5644665586821 M69.7218682970684,294.5644665586821 L71.20794977085728,278.06495804017925 M71.20794977085728,278.06495804017925 L75.19078193926885,261.7137297370869 M75.19078193926885,261.7137297370869 L81.6350627296124,245.63441392026198 M81.6350627296124,245.63441392026198 L90.48702212094372,229.9480693044118 M90.48702212094372,229.9480693044118 L101.67505800725678,214.77233413295755 M101.67505800725678,214.77233413295755 L115.1103886412995,200.2205369675643 M115.1103886412995,200.2205369675643 L130.68786302060334,186.40097819065267 M130.68786302060334,186.40097819065267 L148.2867582083323,173.41609699290004 M148.2867582083323,173.41609699290004 L167.7718754304593,161.3618382428075 M167.7718754304593,161.3618382428075 L188.99452486841642,150.32697118724414 M188.99452486841642,150.32697118724414 L211.79370184622712,140.39252127977414 M211.79370184622712,140.39252127977414 L235.99726298668608,131.63122192655976 M235.99726298668608,131.63122192655976 L261.4232592427955,124.10709210639715 M261.4232592427955,124.10709210639715 L287.8811411993488,117.87496270123683 M287.8811411993488,117.87496270123683 L315.17326476673645,112.98018192222423 M315.17326476673645,112.98018192222423 L343.09614879352745,109.45831578744566 M343.09614879352745,109.45831578744566 L371.44198060796447,107.33493813499217 M371.44198060796447,107.33493813499217 L400,106.6254239883637 M400,106.6254239883637 L428.5580193920355,107.33493813499217 M428.5580193920355,107.33493813499217 L456.90385120647255,109.45831578744566 M456.90385120647255,109.45831578744566 L484.8267352332635,112.98018192222435 M484.8267352332635,112.98018192222435 L512.1188588006512,117.87496270123683 M512.1188588006512,117.87496270123683 L538.5767407572046,124.1070921063972 M538.5767407572046,124.1070921063972 L564.0027370133139,131.63122192655976 M564.0027370133139,131.63122192655976 L588.2062981537729,140.39252127977414 M588.2062981537729,140.39252127977414 L611.0054751315836,150.32697118724414 M611.0054751315836,150.32697118724414 L632.2281245695403,161.36183824280732" stroke="black"  stroke-width="4"  fill="red"/></svg>